<svg xmlns="http://www.w3.org/2000/svg" viewBox="0 0 100 100" fill="none">
  <circle cx="50" cy="50" r="45" fill="#2E1A47" stroke="#F2B705" stroke-width="3"/>
  <path d="M50 20 C35 20 25 30 25 40 C25 50 30 55 35 60 L40 55 C38 52 35 48 35 42 C35 35 42 28 50 28 C58 28 65 35 65 42 C65 48 62 52 60 55 L65 60 C70 55 75 50 75 40 C75 30 65 20 50 20Z" fill="#F2B705"/>
  <rect x="42" y="55" width="16" height="8" rx="2" fill="#F2B705"/>
  <rect x="38" y="60" width="24" height="4" rx="2" fill="#F2B705"/>
  <rect x="35" y="63" width="30" height="3" rx="1.5" fill="#F2B705"/>
  <circle cx="50" cy="18" r="3" fill="#F2B705"/>
  <circle cx="38" cy="70" r="3" fill="#F2B705" opacity="0.6"/>
  <circle cx="62" cy="70" r="3" fill="#F2B705" opacity="0.6"/>
  <circle cx="50" cy="75" r="2" fill="#F2B705" opacity="0.4"/>
</svg>
